<?xml version="1.0" encoding="UTF-8"?>
<svg width="20px" height="25px" viewBox="0 0 20 25" version="1.1" xmlns="http://www.w3.org/2000/svg" xmlns:xlink="http://www.w3.org/1999/xlink">
    <!-- Generator: Sketch 41.2 (35397) - http://www.bohemiancoding.com/sketch -->
    <title>location_icon</title>
    <desc>Created with Sketch.</desc>
    <defs></defs>
    <g id="Page-1" stroke="none" stroke-width="1" fill="none" fill-rule="evenodd">
        <g id="Search-Results" transform="translate(-1054.000000, -56.000000)" fill="#E338A3">
            <g id="Group-2" transform="translate(418.000000, 38.000000)">
                <g id="form" transform="translate(339.000000, 0.000000)">
                    <path d="M314.169696,21.4592014 L313.387968,20.6774728 C313.519008,20.8085133 313.645855,20.9424986 313.768505,21.0792393 C313.904848,21.2014914 314.03864,21.3281455 314.169696,21.4592014 Z M300.821405,20.6774728 L300.039677,21.4592014 C300.170695,21.3281829 300.304447,21.2015641 300.44075,21.0793448 C300.56344,20.9425713 300.690327,20.8085509 300.821405,20.6774728 Z M301.857326,22.4965012 C299.075656,25.6828107 299.053137,30.6887942 301.895702,33.8850914 L307.104686,39.7422883 L312.313671,33.8850914 C315.153911,30.6914077 315.132198,25.6816915 312.351859,22.4963378 C312.231031,22.3579089 312.104993,22.2229255 311.973754,22.0916863 L313.345205,20.7202357 C313.488811,20.8353594 313.629975,20.9550272 313.768505,21.0792393 C313.892351,21.2173151 314.011917,21.3582002 314.127198,21.5016998 L312.755483,22.873415 C312.624274,22.742206 312.489636,22.6165136 312.351859,22.4963378 C309.350423,19.8783507 304.858748,19.8783584 301.857326,22.4965012 C301.719615,22.6166274 301.58504,22.7422654 301.45389,22.873415 L300.082126,21.5016505 C300.197389,21.3582076 300.316932,21.2173743 300.44075,21.0793448 C300.579317,20.9550942 300.720521,20.8353906 300.864167,20.7202341 L302.235619,22.0916863 C302.104316,22.2229892 301.978216,22.3580268 301.857326,22.4965012 Z M311.973754,22.0916863 L312.755483,22.873415 L314.127198,21.5016998 C317.297179,25.4476512 317.226549,31.3704122 313.808161,35.2141877 L307.76663,42.0075349 C307.401049,42.4186098 306.800809,42.4101594 306.442743,42.0075349 L300.401211,35.2141877 C296.979093,31.3662165 296.911903,25.4469202 300.082126,21.5016505 L301.45389,22.873415 L302.235619,22.0916863 L300.864167,20.7202341 C304.502282,17.8036697 309.707259,17.8038292 313.345205,20.7202357 L311.973754,22.0916863 Z" id="location_icon"></path>
                </g>
            </g>
        </g>
    </g>
</svg>