<?xml version="1.0" encoding="UTF-8"?>
<svg width="252px" height="66px" viewBox="0 0 252 66" version="1.1" xmlns="http://www.w3.org/2000/svg" xmlns:xlink="http://www.w3.org/1999/xlink">
    <!-- Generator: Sketch 41.2 (35397) - http://www.bohemiancoding.com/sketch -->
    <title>logo</title>
    <desc>Created with Sketch.</desc>
    <defs></defs>
    <g id="Page-1" stroke="none" stroke-width="1" fill="none" fill-rule="evenodd">
        <g id="Reviews" transform="translate(-474.000000, -25.000000)">
            <g id="logo" transform="translate(474.000000, 25.000000)">
                <g>
                    <path d="M80.171875,37.3242188 C80.171875,39.9414193 79.7194056,42.2395734 78.8144531,44.21875 C77.9095007,46.1979266 76.6171959,47.7213488 74.9375,48.7890625 C73.2578041,49.8567762 71.3177193,50.390625 69.1171875,50.390625 C65.7968584,50.390625 63.1145936,49.2024858 61.0703125,46.8261719 C59.0260314,44.4498579 58.0039062,41.2435098 58.0039062,37.2070312 L58.0039062,34.2773438 C58.0039062,31.686185 58.462886,29.391286 59.3808594,27.3925781 C60.2988327,25.3938702 61.5976479,23.8574272 63.2773438,22.7832031 C64.9570396,21.708979 66.8906141,21.171875 69.078125,21.171875 C71.2656359,21.171875 73.1959552,21.6992135 74.8691406,22.7539062 C76.5423261,23.808599 77.8346309,25.2994695 78.7460938,27.2265625 C79.6575566,29.1536555 80.1328123,31.3867061 80.171875,33.9257812 L80.171875,37.3242188 Z M77.7695312,34.2382812 C77.7695312,30.813785 76.9947994,28.1315201 75.4453125,26.1914062 C73.8958256,24.2512924 71.773451,23.28125 69.078125,23.28125 C66.4348826,23.28125 64.3287839,24.2545476 62.7597656,26.2011719 C61.1907474,28.1477962 60.40625,30.865868 60.40625,34.3554688 L60.40625,37.3242187 C60.40625,40.6966314 61.1874922,43.3691308 62.75,45.3417969 C64.3125078,47.314463 66.4348824,48.3007812 69.1171875,48.3007812 C71.8385553,48.3007812 73.9609299,47.3274837 75.484375,45.3808594 C77.0078201,43.4342351 77.7695312,40.7226736 77.7695312,37.2460937 L77.7695312,34.2382812 Z M102.671875,39.6484375 C102.671875,42.9427248 101.942716,45.556631 100.484375,47.4902344 C99.0260344,49.4238378 97.0729289,50.390625 94.625,50.390625 C91.7343605,50.390625 89.520841,49.3750102 87.984375,47.34375 L87.984375,58.125 L85.6601562,58.125 L85.6601562,28.8671875 L87.828125,28.8671875 L87.9453125,31.8554688 C89.4687576,29.6028533 91.6757668,28.4765625 94.5664062,28.4765625 C97.0924605,28.4765625 99.0748626,29.4335842 100.513672,31.3476562 C101.952481,33.2617283 102.671875,35.9179518 102.671875,39.3164062 L102.671875,39.6484375 Z M100.328125,39.2382812 C100.328125,36.5429553 99.7747451,34.4140703 98.6679688,32.8515625 C97.5611924,31.2890547 96.0182391,30.5078125 94.0390625,30.5078125 C92.6067637,30.5078125 91.3763072,30.8528611 90.3476562,31.5429688 C89.3190053,32.2330764 88.5312527,33.2356705 87.984375,34.5507812 L87.984375,44.6875 C88.5442736,45.8984436 89.3450469,46.8229135 90.3867188,47.4609375 C91.4283906,48.0989615 92.6588471,48.4179688 94.078125,48.4179688 C96.0442807,48.4179688 97.5774685,47.6334714 98.6777344,46.0644531 C99.7780003,44.4954349 100.328125,42.220067 100.328125,39.2382812 Z M116.03125,50.390625 C114.234366,50.390625 112.610033,49.9479211 111.158203,49.0625 C109.706373,48.1770789 108.576827,46.9433673 107.769531,45.3613281 C106.962236,43.779289 106.558594,42.0052182 106.558594,40.0390625 L106.558594,39.1992188 C106.558594,37.1679586 106.95247,35.3385498 107.740234,33.7109375 C108.527999,32.0833252 109.624993,30.8040411 111.03125,29.8730469 C112.437507,28.9420526 113.960929,28.4765625 115.601562,28.4765625 C118.166679,28.4765625 120.201164,29.3522048 121.705078,31.1035156 C123.208992,32.8548265 123.960938,35.2473807 123.960938,38.28125 L123.960938,39.5898438 L108.882812,39.5898438 L108.882812,40.0390625 C108.882812,42.4349078 109.569655,44.4303306 110.943359,46.0253906 C112.317064,47.6204507 114.045563,48.4179688 116.128906,48.4179688 C117.378912,48.4179688 118.482417,48.1901064 119.439453,47.734375 C120.396489,47.2786436 121.265621,46.5494842 122.046875,45.546875 L123.511719,46.6601562 C121.79296,49.1471479 119.299496,50.390625 116.03125,50.390625 Z M115.601562,30.46875 C113.843741,30.46875 112.362636,31.1132748 111.158203,32.4023438 C109.95377,33.6914127 109.221355,35.4231662 108.960938,37.5976562 L121.636719,37.5976562 L121.636719,37.34375 C121.571614,35.3124898 120.992193,33.6588605 119.898438,32.3828125 C118.804682,31.1067645 117.372405,30.46875 115.601562,30.46875 Z M130.738281,28.8671875 L130.816406,32.4804688 C131.610681,31.1783789 132.600254,30.1855503 133.785156,29.5019531 C134.970058,28.818356 136.278639,28.4765625 137.710938,28.4765625 C139.976574,28.4765625 141.662755,29.114577 142.769531,30.390625 C143.876308,31.666673 144.436198,33.5807164 144.449219,36.1328125 L144.449219,50 L142.125,50 L142.125,36.1132812 C142.111979,34.225251 141.711592,32.819015 140.923828,31.8945312 C140.136064,30.9700475 138.876311,30.5078125 137.144531,30.5078125 C135.699212,30.5078125 134.419927,30.9602819 133.306641,31.8652344 C132.193354,32.7701868 131.369794,33.9908777 130.835938,35.5273438 L130.835938,50 L128.511719,50 L128.511719,28.8671875 L130.738281,28.8671875 Z" id="Open" fill="#E338A3"></path>
                    <g id="Group-11">
                        <path d="M21.5708555,10.1571885 C23.0065751,9.32697411 25.3317678,9.32548878 26.770056,10.1571885 L45.6484417,21.0737401 C47.0841613,21.9039545 48.248042,23.920049 48.248042,25.5834483 L48.248042,47.4165517 C48.248042,49.0769804 47.0867299,51.0945602 45.6484417,51.9262599 L26.770056,62.8428115 C25.3343364,63.6730259 23.0091437,63.6745112 21.5708555,62.8428115 L2.6924698,51.9262599 C1.25675023,51.0960455 0.0928695632,49.079951 0.0928695632,47.4165517 L0.0928695632,25.5834483 C0.0928695632,23.9230196 1.25418159,21.9054398 2.6924698,21.0737401 L21.5708555,10.1571885 Z" id="Polygon" fill="#E338A3"></path>
                        <rect id="Rectangle" fill="#FFFFFF" x="24" y="0" width="5" height="66"></rect>
                        <path d="M24.5221803,15.4277841 C24.5221803,13.7750559 25.6853568,13.0876563 27.1382856,13.9025737 L42.9824041,22.789209 C44.4272391,23.5995868 45.5985093,25.6079307 45.5985093,27.2591052 L45.5985093,45.7408729 C45.5985093,47.3991506 44.4353329,49.3958516 42.9824041,50.2107691 L27.1382856,59.0974043 C25.6934505,59.9077821 24.5221803,59.2272327 24.5221803,57.572194 L24.5221803,15.4277841 Z" id="Rectangle-13" fill="#FFFFFF"></path>
                    </g>
                    <path d="M148.435547,50 L148.435547,21.5625 L157.595703,21.5625 C160.108737,21.5625 162.367829,22.1321558 164.373047,23.2714844 C166.378265,24.410813 167.944005,26.0188698 169.070312,28.0957031 C170.19662,30.1725364 170.766276,32.4999871 170.779297,35.078125 L170.779297,36.3867188 C170.779297,38.9908984 170.229172,41.3248595 169.128906,43.3886719 C168.02864,45.4524843 166.479177,47.0670515 164.480469,48.2324219 C162.481761,49.3977923 160.251965,49.9869791 157.791016,50 L148.435547,50 Z M155.291016,26.8554688 L155.291016,44.7265625 L157.673828,44.7265625 C159.639984,44.7265625 161.150385,44.0266997 162.205078,42.6269531 C163.259771,41.2272065 163.787109,39.1471492 163.787109,36.3867188 L163.787109,35.15625 C163.787109,32.4088404 163.259771,30.3385486 162.205078,28.9453125 C161.150385,27.5520764 159.613942,26.8554688 157.595703,26.8554688 L155.291016,26.8554688 Z M173.162109,39.2382812 C173.162109,37.1288957 173.572262,35.2506593 174.392578,33.6035156 C175.212895,31.956372 176.391268,30.6901086 177.927734,29.8046875 C179.4642,28.9192664 181.267568,28.4765625 183.337891,28.4765625 C186.501969,28.4765625 188.995434,29.4563704 190.818359,31.4160156 C192.641285,33.3756608 193.552734,36.0416498 193.552734,39.4140625 L193.552734,39.6484375 C193.552734,42.9427248 192.63803,45.556631 190.808594,47.4902344 C188.979158,49.4238378 186.501969,50.390625 183.376953,50.390625 C180.369126,50.390625 177.953785,49.4889413 176.130859,47.6855469 C174.307934,45.8821524 173.324871,43.4375154 173.181641,40.3515625 L173.162109,39.2382812 Z M179.744141,39.6484375 C179.744141,41.6015723 180.050127,43.0338496 180.662109,43.9453125 C181.274092,44.8567754 182.17903,45.3125 183.376953,45.3125 C185.720715,45.3125 186.91862,43.5091326 186.970703,39.9023438 L186.970703,39.2382812 C186.970703,35.4491998 185.759778,33.5546875 183.337891,33.5546875 C181.137359,33.5546875 179.945964,35.1887857 179.763672,38.4570312 L179.744141,39.6484375 Z M195.623047,39.2382812 C195.623047,37.1288957 196.033199,35.2506593 196.853516,33.6035156 C197.673832,31.956372 198.852206,30.6901086 200.388672,29.8046875 C201.925138,28.9192664 203.728505,28.4765625 205.798828,28.4765625 C208.962906,28.4765625 211.456371,29.4563704 213.279297,31.4160156 C215.102223,33.3756608 216.013672,36.0416498 216.013672,39.4140625 L216.013672,39.6484375 C216.013672,42.9427248 215.098967,45.556631 213.269531,47.4902344 C211.440095,49.4238378 208.962906,50.390625 205.837891,50.390625 C202.830063,50.390625 200.414723,49.4889413 198.591797,47.6855469 C196.768871,45.8821524 195.785808,43.4375154 195.642578,40.3515625 L195.623047,39.2382812 Z M202.205078,39.6484375 C202.205078,41.6015723 202.511065,43.0338496 203.123047,43.9453125 C203.735029,44.8567754 204.639968,45.3125 205.837891,45.3125 C208.181652,45.3125 209.379557,43.5091326 209.431641,39.9023438 L209.431641,39.2382812 C209.431641,35.4491998 208.220715,33.5546875 205.798828,33.5546875 C203.598296,33.5546875 202.406902,35.1887857 202.224609,38.4570312 L202.205078,39.6484375 Z M231.697266,34.8242188 L229.529297,34.6679688 C227.458974,34.6679688 226.130862,35.3190039 225.544922,36.6210938 L225.544922,50 L218.962891,50 L218.962891,28.8671875 L225.134766,28.8671875 L225.349609,31.5820312 C226.456386,29.5117084 227.999339,28.4765625 229.978516,28.4765625 C230.681644,28.4765625 231.293617,28.5546867 231.814453,28.7109375 L231.697266,34.8242188 Z M245.134766,44.0625 C245.134766,43.5026014 244.8418,43.0533871 244.255859,42.7148438 C243.669919,42.3763004 242.556649,42.0247414 240.916016,41.6601562 C239.275382,41.2955711 237.921229,40.8170603 236.853516,40.2246094 C235.785802,39.6321585 234.972008,38.9127646 234.412109,38.0664062 C233.852211,37.2200479 233.572266,36.2500055 233.572266,35.15625 C233.572266,33.2161361 234.373039,31.6178448 235.974609,30.3613281 C237.57618,29.1048114 239.672513,28.4765625 242.263672,28.4765625 C245.050144,28.4765625 247.289705,29.1080666 248.982422,30.3710938 C250.675139,31.6341209 251.521484,33.2942605 251.521484,35.3515625 L244.919922,35.3515625 C244.919922,33.6588457 244.028004,32.8125 242.244141,32.8125 C241.554033,32.8125 240.974612,33.0045554 240.505859,33.3886719 C240.037107,33.7727884 239.802734,34.2512992 239.802734,34.8242188 C239.802734,35.4101592 240.08919,35.8854148 240.662109,36.25 C241.235029,36.6145852 242.149733,36.9140613 243.40625,37.1484375 C244.662767,37.3828137 245.766271,37.6627588 246.716797,37.9882812 C249.893896,39.0820367 251.482422,41.0416525 251.482422,43.8671875 C251.482422,45.7942805 250.626311,47.3632752 248.914062,48.5742188 C247.201814,49.7851623 244.98504,50.390625 242.263672,50.390625 C240.453767,50.390625 238.8392,50.0651074 237.419922,49.4140625 C236.000644,48.7630176 234.893884,47.8776098 234.099609,46.7578125 C233.305335,45.6380152 232.908203,44.4596416 232.908203,43.2226562 L239.060547,43.2226562 C239.086589,44.1992236 239.412106,44.9121071 240.037109,45.3613281 C240.662113,45.8105491 241.462886,46.0351562 242.439453,46.0351562 C243.337895,46.0351562 244.011717,45.8528664 244.460938,45.4882812 C244.910158,45.1236961 245.134766,44.6484404 245.134766,44.0625 Z" id="Doors" fill="#E338A3"></path>
                </g>
            </g>
        </g>
    </g>
</svg>