<?xml version="1.0" encoding="UTF-8"?>
<svg width="252px" height="50px" viewBox="0 0 252 50" version="1.1" xmlns="http://www.w3.org/2000/svg" xmlns:xlink="http://www.w3.org/1999/xlink">
    <defs>
        <path d="M25,0 L1.99091407,0 C0.889064278,0 0,0.891362589 0,1.99091407 L0,48.0090859 C0,49.1109357 0.891362589,50 1.99091407,50 L25,50 L25,3.10862447e-15 Z" id="path-1"></path>
        <mask id="mask-2" maskContentUnits="userSpaceOnUse" maskUnits="objectBoundingBox" x="0" y="0" width="25" height="50" fill="white">
            <use xlink:href="#path-1"></use>
        </mask>
        <path d="M50,1.42108547e-14 L24.7332635,1.42108547e-14 C23.6285023,1.42108547e-14 22.7272727,0.891362589 22.7272727,1.99091407 L22.7272727,48.0090859 C22.7272727,49.1109357 23.6253854,50 24.7332635,50 L50,50 L50,2.22044605e-14 Z" id="path-3"></path>
        <mask id="mask-4" maskContentUnits="userSpaceOnUse" maskUnits="objectBoundingBox" x="0" y="0" width="27.2727273" height="50" fill="white">
            <use xlink:href="#path-3"></use>
        </mask>
    </defs>
    <g id="Page-1" stroke="none" stroke-width="1" fill="none" fill-rule="evenodd">
        <g id="Search-Page" transform="translate(-57.000000, -38.000000)">
            <g id="logo" transform="translate(57.000000, 38.000000)">
                <g id="Group" transform="translate(58.000000, 8.000000)" fill="#E338A3">
                    <path d="M22.171875,16.3242188 C22.171875,18.9414193 21.7194056,21.2395734 20.8144531,23.21875 C19.9095007,25.1979266 18.6171959,26.7213488 16.9375,27.7890625 C15.2578041,28.8567762 13.3177193,29.390625 11.1171875,29.390625 C7.7968584,29.390625 5.11459355,28.2024858 3.0703125,25.8261719 C1.02603145,23.4498579 0.00390625,20.2435098 0.00390625,16.2070312 L0.00390625,13.2773438 C0.00390625,10.686185 0.462886035,8.39128604 1.38085938,6.39257812 C2.29883271,4.39387021 3.59764785,2.85742725 5.27734375,1.78320312 C6.95703965,0.708979004 8.89061406,0.171875 11.078125,0.171875 C13.2656359,0.171875 15.1959552,0.699213477 16.8691406,1.75390625 C18.5423261,2.80859902 19.8346309,4.29946953 20.7460938,6.2265625 C21.6575566,8.15365547 22.1328123,10.3867061 22.171875,12.9257812 L22.171875,16.3242188 Z M19.7695312,13.2382812 C19.7695312,9.81378496 18.9947994,7.13152012 17.4453125,5.19140625 C15.8958256,3.25129238 13.773451,2.28125 11.078125,2.28125 C8.43488262,2.28125 6.32878389,3.25454756 4.75976562,5.20117188 C3.19074736,7.14779619 2.40625,9.86586797 2.40625,13.3554687 L2.40625,16.3242187 C2.40625,19.6966314 3.18749219,22.3691308 4.75,24.3417969 C6.31250781,26.314463 8.43488242,27.3007812 11.1171875,27.3007812 C13.8385553,27.3007812 15.9609299,26.3274837 17.484375,24.3808594 C19.0078201,22.4342351 19.7695312,19.7226736 19.7695312,16.2460937 L19.7695312,13.2382812 Z M44.671875,18.6484375 C44.671875,21.9427248 43.9427156,24.556631 42.484375,26.4902344 C41.0260344,28.4238378 39.0729289,29.390625 36.625,29.390625 C33.7343605,29.390625 31.520841,28.3750102 29.984375,26.34375 L29.984375,37.125 L27.6601562,37.125 L27.6601562,7.8671875 L29.828125,7.8671875 L29.9453125,10.8554688 C31.4687576,8.60285332 33.6757668,7.4765625 36.5664062,7.4765625 C39.0924605,7.4765625 41.0748626,8.43358418 42.5136719,10.3476562 C43.9524812,12.2617283 44.671875,14.9179518 44.671875,18.3164062 L44.671875,18.6484375 Z M42.328125,18.2382812 C42.328125,15.5429553 41.7747451,13.4140703 40.6679688,11.8515625 C39.5611924,10.2890547 38.0182391,9.5078125 36.0390625,9.5078125 C34.6067637,9.5078125 33.3763072,9.85286113 32.3476562,10.5429688 C31.3190053,11.2330764 30.5312527,12.2356705 29.984375,13.5507812 L29.984375,23.6875 C30.5442736,24.8984436 31.3450469,25.8229135 32.3867188,26.4609375 C33.4283906,27.0989615 34.6588471,27.4179688 36.078125,27.4179688 C38.0442807,27.4179688 39.5774685,26.6334714 40.6777344,25.0644531 C41.7780003,23.4954349 42.328125,21.220067 42.328125,18.2382812 Z M58.03125,29.390625 C56.234366,29.390625 54.6100333,28.9479211 53.1582031,28.0625 C51.7063729,27.1770789 50.576827,25.9433673 49.7695312,24.3613281 C48.9622355,22.779289 48.5585938,21.0052182 48.5585938,19.0390625 L48.5585938,18.1992188 C48.5585938,16.1679586 48.95247,14.3385498 49.7402344,12.7109375 C50.5279987,11.0833252 51.624993,9.80404111 53.03125,8.87304688 C54.437507,7.94205264 55.9609293,7.4765625 57.6015625,7.4765625 C60.1666795,7.4765625 62.2011644,8.35220479 63.7050781,10.1035156 C65.2089919,11.8548265 65.9609375,14.2473807 65.9609375,17.28125 L65.9609375,18.5898438 L50.8828125,18.5898438 L50.8828125,19.0390625 C50.8828125,21.4349078 51.5696546,23.4303306 52.9433594,25.0253906 C54.3170642,26.6204507 56.0455625,27.4179688 58.1289062,27.4179688 C59.3789125,27.4179688 60.4824171,27.1901064 61.4394531,26.734375 C62.3964892,26.2786436 63.2656211,25.5494842 64.046875,24.546875 L65.5117188,25.6601562 C63.7929602,28.1471479 61.2994955,29.390625 58.03125,29.390625 Z M57.6015625,9.46875 C55.8437412,9.46875 54.3626362,10.1132748 53.1582031,11.4023438 C51.95377,12.6914127 51.2213555,14.4231662 50.9609375,16.5976562 L63.6367188,16.5976562 L63.6367188,16.34375 C63.5716143,14.3124898 62.992193,12.6588605 61.8984375,11.3828125 C60.804682,10.1067645 59.3724047,9.46875 57.6015625,9.46875 Z M72.7382812,7.8671875 L72.8164062,11.4804688 C73.6106811,10.1783789 74.6002545,9.18555029 75.7851562,8.50195312 C76.970058,7.81835596 78.2786387,7.4765625 79.7109375,7.4765625 C81.9765738,7.4765625 83.6627549,8.11457695 84.7695312,9.390625 C85.8763076,10.666673 86.4361979,12.5807164 86.4492188,15.1328125 L86.4492188,29 L84.125,29 L84.125,15.1132812 C84.1119791,13.225251 83.7115925,11.819015 82.9238281,10.8945312 C82.1360638,9.97004746 80.8763107,9.5078125 79.1445312,9.5078125 C77.6992115,9.5078125 76.4199274,9.96028193 75.3066406,10.8652344 C74.1933538,11.7701868 73.3697943,12.9908777 72.8359375,14.5273438 L72.8359375,29 L70.5117188,29 L70.5117188,7.8671875 L72.7382812,7.8671875 Z" id="Open"></path>
                    <path d="M90.4355469,29 L90.4355469,0.5625 L99.5957031,0.5625 C102.108737,0.5625 104.367829,1.13215576 106.373047,2.27148438 C108.378265,3.41081299 109.944005,5.01886982 111.070312,7.09570312 C112.19662,9.17253643 112.766276,11.4999871 112.779297,14.078125 L112.779297,15.3867188 C112.779297,17.9908984 112.229172,20.3248595 111.128906,22.3886719 C110.02864,24.4524843 108.479177,26.0670515 106.480469,27.2324219 C104.481761,28.3977923 102.251965,28.9869791 99.7910156,29 L90.4355469,29 Z M97.2910156,5.85546875 L97.2910156,23.7265625 L99.6738281,23.7265625 C101.639984,23.7265625 103.150385,23.0266997 104.205078,21.6269531 C105.259771,20.2272065 105.787109,18.1471492 105.787109,15.3867188 L105.787109,14.15625 C105.787109,11.4088404 105.259771,9.33854863 104.205078,7.9453125 C103.150385,6.55207637 101.613942,5.85546875 99.5957031,5.85546875 L97.2910156,5.85546875 Z M115.162109,18.2382812 C115.162109,16.1288957 115.572262,14.2506593 116.392578,12.6035156 C117.212895,10.956372 118.391268,9.69010859 119.927734,8.8046875 C121.4642,7.91926641 123.267568,7.4765625 125.337891,7.4765625 C128.501969,7.4765625 130.995434,8.45637041 132.818359,10.4160156 C134.641285,12.3756608 135.552734,15.0416498 135.552734,18.4140625 L135.552734,18.6484375 C135.552734,21.9427248 134.63803,24.556631 132.808594,26.4902344 C130.979158,28.4238378 128.501969,29.390625 125.376953,29.390625 C122.369126,29.390625 119.953785,28.4889413 118.130859,26.6855469 C116.307934,24.8821524 115.324871,22.4375154 115.181641,19.3515625 L115.162109,18.2382812 Z M121.744141,18.6484375 C121.744141,20.6015723 122.050127,22.0338496 122.662109,22.9453125 C123.274092,23.8567754 124.17903,24.3125 125.376953,24.3125 C127.720715,24.3125 128.91862,22.5091326 128.970703,18.9023438 L128.970703,18.2382812 C128.970703,14.4491998 127.759778,12.5546875 125.337891,12.5546875 C123.137359,12.5546875 121.945964,14.1887857 121.763672,17.4570312 L121.744141,18.6484375 Z M137.623047,18.2382812 C137.623047,16.1288957 138.033199,14.2506593 138.853516,12.6035156 C139.673832,10.956372 140.852206,9.69010859 142.388672,8.8046875 C143.925138,7.91926641 145.728505,7.4765625 147.798828,7.4765625 C150.962906,7.4765625 153.456371,8.45637041 155.279297,10.4160156 C157.102223,12.3756608 158.013672,15.0416498 158.013672,18.4140625 L158.013672,18.6484375 C158.013672,21.9427248 157.098967,24.556631 155.269531,26.4902344 C153.440095,28.4238378 150.962906,29.390625 147.837891,29.390625 C144.830063,29.390625 142.414723,28.4889413 140.591797,26.6855469 C138.768871,24.8821524 137.785808,22.4375154 137.642578,19.3515625 L137.623047,18.2382812 Z M144.205078,18.6484375 C144.205078,20.6015723 144.511065,22.0338496 145.123047,22.9453125 C145.735029,23.8567754 146.639968,24.3125 147.837891,24.3125 C150.181652,24.3125 151.379557,22.5091326 151.431641,18.9023438 L151.431641,18.2382812 C151.431641,14.4491998 150.220715,12.5546875 147.798828,12.5546875 C145.598296,12.5546875 144.406902,14.1887857 144.224609,17.4570312 L144.205078,18.6484375 Z M173.697266,13.8242188 L171.529297,13.6679688 C169.458974,13.6679688 168.130862,14.3190039 167.544922,15.6210938 L167.544922,29 L160.962891,29 L160.962891,7.8671875 L167.134766,7.8671875 L167.349609,10.5820312 C168.456386,8.5117084 169.999339,7.4765625 171.978516,7.4765625 C172.681644,7.4765625 173.293617,7.55468672 173.814453,7.7109375 L173.697266,13.8242188 Z M187.134766,23.0625 C187.134766,22.5026014 186.8418,22.0533871 186.255859,21.7148438 C185.669919,21.3763004 184.556649,21.0247414 182.916016,20.6601562 C181.275382,20.2955711 179.921229,19.8170603 178.853516,19.2246094 C177.785802,18.6321585 176.972008,17.9127646 176.412109,17.0664062 C175.852211,16.2200479 175.572266,15.2500055 175.572266,14.15625 C175.572266,12.2161361 176.373039,10.6178448 177.974609,9.36132812 C179.57618,8.10481143 181.672513,7.4765625 184.263672,7.4765625 C187.050144,7.4765625 189.289705,8.1080666 190.982422,9.37109375 C192.675139,10.6341209 193.521484,12.2942605 193.521484,14.3515625 L186.919922,14.3515625 C186.919922,12.6588457 186.028004,11.8125 184.244141,11.8125 C183.554033,11.8125 182.974612,12.0045554 182.505859,12.3886719 C182.037107,12.7727884 181.802734,13.2512992 181.802734,13.8242188 C181.802734,14.4101592 182.08919,14.8854148 182.662109,15.25 C183.235029,15.6145852 184.149733,15.9140613 185.40625,16.1484375 C186.662767,16.3828137 187.766271,16.6627588 188.716797,16.9882812 C191.893896,18.0820367 193.482422,20.0416525 193.482422,22.8671875 C193.482422,24.7942805 192.626311,26.3632752 190.914062,27.5742188 C189.201814,28.7851623 186.98504,29.390625 184.263672,29.390625 C182.453767,29.390625 180.8392,29.0651074 179.419922,28.4140625 C178.000644,27.7630176 176.893884,26.8776098 176.099609,25.7578125 C175.305335,24.6380152 174.908203,23.4596416 174.908203,22.2226562 L181.060547,22.2226562 C181.086589,23.1992236 181.412106,23.9121071 182.037109,24.3613281 C182.662113,24.8105491 183.462886,25.0351562 184.439453,25.0351562 C185.337895,25.0351562 186.011717,24.8528664 186.460938,24.4882812 C186.910158,24.1236961 187.134766,23.6484404 187.134766,23.0625 Z" id="Doors"></path>
                </g>
                <g id="Group-3" stroke="#E338A3">
                    <use id="Combined-Shape" mask="url(#mask-2)" stroke-width="2" fill="#E338A3" xlink:href="#path-1"></use>
                    <use id="Combined-Shape" mask="url(#mask-4)" stroke-width="8" transform="translate(36.363636, 25.000000) rotate(-180.000000) translate(-36.363636, -25.000000) " xlink:href="#path-3"></use>
                </g>
            </g>
        </g>
    </g>
</svg>