<?xml version="1.0" encoding="UTF-8"?>
<svg width="28px" height="26px" viewBox="0 0 28 26" version="1.1" xmlns="http://www.w3.org/2000/svg" xmlns:xlink="http://www.w3.org/1999/xlink">
    <defs></defs>
    <g id="Page-1" stroke="none" stroke-width="1" fill="none" fill-rule="evenodd">
        <g id="Profile" transform="translate(-226.000000, -297.000000)" fill="#E338A3">
            <g id="Group-4" transform="translate(190.000000, 297.000000)">
                <path d="M51.7630163,22.4268725 C50.7893293,21.914975 49.2020194,21.9195232 48.2369837,22.4268725 L42.9462375,25.2083824 C41.9725505,25.72028 41.3356219,25.2466905 41.5199274,24.1721074 L42.53037,18.280775 C42.7163276,17.1965585 42.2214963,15.6883426 41.440766,14.9273187 L37.1604624,10.7550539 C36.3727331,9.98720753 36.6263217,9.23510528 37.7052644,9.07832572 L43.6204985,8.2187919 C44.7091136,8.06060686 45.9906009,7.1239299 46.4731188,6.14624194 L49.1184919,0.786130598 C49.6053354,-0.200322093 50.3989903,-0.191557353 50.8815081,0.786130598 L53.5268812,6.14624194 C54.0137248,7.13269463 55.3005588,8.06201235 56.3795015,8.2187919 L62.2947356,9.07832572 C63.3833508,9.23651077 63.6202679,9.99402992 62.8395376,10.7550539 L58.559234,14.9273187 C57.7715047,15.695165 57.2853246,17.2061919 57.46963,18.280775 L58.4800726,24.1721074 C58.6660303,25.2563238 58.0187982,25.7157317 57.0537625,25.2083824 L51.7630163,22.4268725 Z" id="Star-filled"></path>
            </g>
        </g>
    </g>
</svg>