<?xml version="1.0" encoding="UTF-8"?>
<svg width="28px" height="26px" viewBox="0 0 28 26" version="1.1" xmlns="http://www.w3.org/2000/svg" xmlns:xlink="http://www.w3.org/1999/xlink">
    <defs>
        <path d="M15.7630163,22.4268725 C14.7893293,21.914975 13.2020194,21.9195232 12.2369837,22.4268725 L6.94623751,25.2083824 C5.9725505,25.72028 5.33562195,25.2466905 5.51992737,24.1721074 L6.53036998,18.280775 C6.71632765,17.1965585 6.22149626,15.6883426 5.44076598,14.9273187 L1.1604624,10.7550539 C0.372733059,9.98720753 0.626321686,9.23510528 1.7052644,9.07832572 L7.62049847,8.2187919 C8.70911364,8.06060686 9.99060091,7.1239299 10.4731188,6.14624194 L13.1184919,0.786130598 C13.6053354,-0.200322093 14.3989903,-0.191557353 14.8815081,0.786130598 L17.5268812,6.14624194 C18.0137248,7.13269463 19.3005588,8.06201235 20.3795015,8.2187919 L26.2947356,9.07832572 C27.3833508,9.23651077 27.6202679,9.99402992 26.8395376,10.7550539 L22.559234,14.9273187 C21.7715047,15.695165 21.2853246,17.2061919 21.46963,18.280775 L22.4800726,24.1721074 C22.6660303,25.2563238 22.0187982,25.7157317 21.0537625,25.2083824 L15.7630163,22.4268725 Z" id="path-1"></path>
    </defs>
    <g id="Page-1" stroke="none" stroke-width="1" fill="none" fill-rule="evenodd">
        <g id="Profile" transform="translate(-347.000000, -297.000000)">
            <g id="Group-4" transform="translate(190.000000, 297.000000)">
                <g id="half_star" transform="translate(157.000000, 0.000000)">
                    <mask id="mask-2" fill="white">
                        <use xlink:href="#path-1"></use>
                    </mask>
                    <use id="Star" fill="#E338A3" xlink:href="#path-1"></use>
                    <rect id="Rectangle-8" fill="#FFFFFF" mask="url(#mask-2)" x="14" y="-13" width="40" height="56"></rect>
                </g>
            </g>
        </g>
    </g>
</svg>