<?xml version="1.0" encoding="UTF-8"?>
<svg width="28px" height="26px" viewBox="0 0 28 26" version="1.1" xmlns="http://www.w3.org/2000/svg" xmlns:xlink="http://www.w3.org/1999/xlink">
    <defs></defs>
    <g id="Page-1" stroke="none" stroke-width="1" fill="none" fill-rule="evenodd">
        <g id="Reviews" transform="translate(-417.000000, -300.000000)" fill="#CCCCCC">
            <g id="Group-4" transform="translate(241.000000, 300.000000)">
                <path d="M191.763016,22.4268725 C190.789329,21.914975 189.202019,21.9195232 188.236984,22.4268725 L182.946238,25.2083824 C181.97255,25.72028 181.335622,25.2466905 181.519927,24.1721074 L182.53037,18.280775 C182.716328,17.1965585 182.221496,15.6883426 181.440766,14.9273187 L177.160462,10.7550539 C176.372733,9.98720753 176.626322,9.23510528 177.705264,9.07832572 L183.620498,8.2187919 C184.709114,8.06060686 185.990601,7.1239299 186.473119,6.14624194 L189.118492,0.786130598 C189.605335,-0.200322093 190.39899,-0.191557353 190.881508,0.786130598 L193.526881,6.14624194 C194.013725,7.13269463 195.300559,8.06201235 196.379502,8.2187919 L202.294736,9.07832572 C203.383351,9.23651077 203.620268,9.99402992 202.839538,10.7550539 L198.559234,14.9273187 C197.771505,15.695165 197.285325,17.2061919 197.46963,18.280775 L198.480073,24.1721074 C198.66603,25.2563238 198.018798,25.7157317 197.053762,25.2083824 L191.763016,22.4268725 Z" id="Star-Unfilled"></path>
            </g>
        </g>
    </g>
</svg>